<svg width="24" height="24" viewBox="0 0 24 24" fill="none" xmlns="http://www.w3.org/2000/svg">
<path fill-rule="evenodd" clip-rule="evenodd" d="M12 20.5C16.6944 20.5 20.5 16.6944 20.5 12C20.5 7.30558 16.6944 3.5 12 3.5C7.30558 3.5 3.5 7.30558 3.5 12C3.5 16.6944 7.30558 20.5 12 20.5ZM12 22C17.5228 22 22 17.5228 22 12C22 6.47715 17.5228 2 12 2C6.47715 2 2 6.47715 2 12C2 17.5228 6.47715 22 12 22Z" fill="#5C44DD"/>
<path fill-rule="evenodd" clip-rule="evenodd" d="M11.25 22V2H12.75V22H11.25Z" fill="#5C44DD"/>
<path fill-rule="evenodd" clip-rule="evenodd" d="M14.9564 18.2993C15.8801 16.7599 16.5 14.5363 16.5 12C16.5 9.4637 15.8801 7.24013 14.9564 5.70068C14.0148 4.13136 12.923 3.5 12 3.5C11.077 3.5 9.98519 4.13136 9.0436 5.70068C8.11992 7.24013 7.5 9.4637 7.5 12C7.5 14.5363 8.11992 16.7599 9.0436 18.2993C9.98519 19.8686 11.077 20.5 12 20.5C12.923 20.5 14.0148 19.8686 14.9564 18.2993ZM12 22C15.3137 22 18 17.5228 18 12C18 6.47715 15.3137 2 12 2C8.68629 2 6 6.47715 6 12C6 17.5228 8.68629 22 12 22Z" fill="#5C44DD"/>
<path fill-rule="evenodd" clip-rule="evenodd" d="M2 11.25H22V12.75H2V11.25Z" fill="#5C44DD"/>
</svg>
